<?xml version="1.0" standalone="no"?>
<!DOCTYPE svg PUBLIC "-//W3C//DTD SVG 20010904//EN"
 "http://www.w3.org/TR/2001/REC-SVG-20010904/DTD/svg10.dtd">
<svg version="1.0" xmlns="http://www.w3.org/2000/svg"
 width="769.000000pt" height="450.000000pt" viewBox="0 0 769.000000 450.000000"
 preserveAspectRatio="xMidYMid meet">

<g transform="translate(0.000000,450.000000) scale(0.100000,-0.100000)"
fill="#000000" stroke="none">
<path d="M6606 3040 c-175 -32 -275 -156 -245 -302 14 -66 50 -110 183 -227
133 -117 151 -140 142 -177 -16 -61 -171 -72 -309 -21 -43 16 -67 20 -64 13 3
-7 8 -63 12 -124 l7 -111 77 -7 c134 -14 300 -10 362 9 131 39 212 135 212
249 0 92 -43 154 -181 264 -108 86 -151 130 -152 157 -1 85 120 101 312 40 17
-5 17 2 12 88 -8 136 -8 135 -52 143 -72 11 -267 15 -316 6z"/>
<path d="M3110 3038 c-1 -2 -5 -141 -10 -310 -8 -285 -22 -511 -36 -600 l-6
-38 146 0 146 0 0 51 c0 105 20 645 26 677 l5 32 95 0 c140 0 184 -24 184
-102 0 -82 -76 -133 -188 -126 l-60 3 10 -25 c39 -100 129 -360 148 -427 l24
-83 158 0 157 0 -35 78 c-58 125 -144 328 -144 338 0 5 20 17 44 27 108 44
168 136 168 257 0 132 -73 213 -217 239 -48 9 -614 17 -615 9z"/>
<path d="M4090 2843 c0 -109 -5 -265 -10 -348 -5 -82 -12 -207 -16 -277 l-7
-128 150 0 151 0 6 228 c8 251 23 563 32 660 l6 62 -156 0 -156 0 0 -197z"/>
<path d="M4506 2994 c-3 -26 -6 -73 -6 -104 l0 -58 147 6 146 5 -6 -219 c-6
-203 -19 -407 -32 -496 l-5 -38 149 0 149 0 6 93 c3 50 8 182 12 292 4 110 9
236 13 280 l6 80 148 0 147 0 0 65 c0 36 3 82 6 103 l7 37 -440 0 -440 0 -7
-46z"/>
<path d="M5406 2994 c-3 -26 -6 -73 -6 -104 l0 -58 147 6 146 5 -6 -219 c-6
-203 -19 -407 -32 -496 l-5 -38 149 0 149 0 6 93 c3 50 8 182 12 292 4 110 9
236 13 280 l6 80 148 0 147 0 0 65 c0 36 3 82 6 103 l7 37 -440 0 -440 0 -7
-46z"/>
<path d="M2003 2931 c-24 -54 -46 -106 -49 -115 -6 -15 41 -16 507 -16 l514 0
45 106 c25 58 47 110 48 115 2 5 -196 9 -510 9 l-513 0 -42 -99z"/>
<path d="M1595 2483 c-209 -289 -383 -532 -388 -539 -8 -14 -4 -13 171 37 57
17 107 29 112 27 4 -2 -57 -151 -137 -333 -265 -606 -283 -648 -277 -642 24
24 959 1283 955 1285 -3 1 -100 -25 -215 -58 -115 -33 -211 -59 -212 -57 -1 1
83 182 187 401 104 220 188 401 186 402 -1 1 -173 -235 -382 -523z"/>
<path d="M2033 2216 c-40 -57 -73 -107 -73 -110 0 -3 163 -6 363 -6 l363 0 33
78 c19 42 40 92 48 110 l13 32 -337 0 -338 -1 -72 -103z"/>
</g>
</svg>
